<svg xmlns="http://www.w3.org/2000/svg" viewBox="0 0 117.04 117.16"><defs><style>.cls-1{fill:#fff;}</style></defs><g id="Capa_2" data-name="Capa 2"><g id="Capa_1-2" data-name="Capa 1"><path class="cls-1" d="M.19,29.11C2,13.07,14.74.69,30.93.31,49.3-.12,67.7-.08,86.08.3a30.88,30.88,0,0,1,29.73,24.26c1.34,6,1.06,12.31,1.14,18.49.16,11.88,0,23.76,0,35.63,0,23.42-9.42,36.12-29.94,38.48H29.93a58.82,58.82,0,0,1-7.86-1.74C8.91,110.62,1.76,101,0,87.22ZM10.37,58.66c0,8.53,0,17.06,0,25.59,0,12.5,8.66,22.07,21.14,22.37q26.76.63,53.56,0c12.5-.29,21.1-8.85,21.4-21.32q.63-26.72,0-53.45c-.31-12.5-9.23-21.08-21.73-21.26-18.12-.26-36.25-.15-54.37.09-9.37.13-18.89,8.61-19.49,17.94Z"/><path class="cls-1" d="M88.65,58.68A30.15,30.15,0,1,1,58.49,28.51,30.27,30.27,0,0,1,88.65,58.68ZM58.54,38.91A19.75,19.75,0,1,0,78.25,58.7,19.78,19.78,0,0,0,58.54,38.91Z"/><circle class="cls-1" cx="89.91" cy="27.25" r="7.8"/></g></g></svg>