<svg xmlns="http://www.w3.org/2000/svg" viewBox="0 0 1280 398.59"><defs><style>.cls-1{fill:#0f0f4c;}</style></defs><g id="Capa_2" data-name="Capa 2"><g id="Capa_3" data-name="Capa 3"><path class="cls-1" d="M1280,0q-6.86,4.56-13.48,9.45C1248.8,22.54,1227.81,38.28,1207,31c-8.14-2.85-15.34-9.14-24-9.18-9.87,0-18.32,8.23-28.2,8.28-4.81,0-9.38-1.93-13.81-3.82C1119,16.85,1096.31,8,1072.47,5.34s-49.32,1.7-68.21,16.48C979,41.58,967.84,77.6,938.67,90.87a17.22,17.22,0,0,1-10.76-14.18,119.69,119.69,0,0,0-96.91,3c-5.35,2.61-10.62,5.66-16.49,6.63-7.58,1.25-15.22-1.12-22.72-2.8-62.16-13.89-229.41,19.23-247.85,80.19-1.26,4.15-37.79,16.75-37.29,21.06.38,3.29-151.19,34.85-150.75,38.13,1.61,12.22-76.17,66.79-86,74.27C248.55,313.52,1,392.88,0,398.59H1280Z"/></g></g></svg>