<svg xmlns="http://www.w3.org/2000/svg" viewBox="0 0 1280 380.88"><defs><style>.cls-1{fill:#141451;}</style></defs><g id="Capa_2" data-name="Capa 2"><g id="Capa_3" data-name="Capa 3"><path class="cls-1" d="M1061.48,249.65c-1.57-60.59-116.23-64.32-121.07-124.74-.49-6.2-.86-12.64-3.78-18.13-2.42-4.53-6.36-8-9.77-11.85C913.66,80,751.93,99,747.79,62.82,704.92,64.31,619.92,52,577,53.51c-21.9.77-47.85-.45-59.79-18.83-3.92-6-6-13.61-11.9-17.74-3.43-2.41-7.68-3.27-11.8-4.07L436.3,1.74C430.13.54,423.78-.67,417.59.43c-7,1.26-13.21,5.37-19.72,8.34C366.6,23,330.33,10.5,296,10.58c-53.75.13-110.71,31.1-158.34,6.2-8.13-4.25-15.76-10.09-24.83-11.46C105,4.15,97.19,6.43,89.67,8.72Q44.65,22.4,0,37.27V380.88H1280C1274.27,357.42,1062.07,272.1,1061.48,249.65Z"/></g></g></svg>