<svg xmlns="http://www.w3.org/2000/svg" viewBox="0 0 1280 312.43"><defs><style>.cls-1{fill:#0b0b47;}</style></defs><g id="Capa_2" data-name="Capa 2"><g id="Capa_3" data-name="Capa 3"><path class="cls-1" d="M688.31,205.13s-97.66-4.19-172-34.69c0,0-71.15-26.51-96.12-27-6.61-.13-13.42,0-19.57-2.38-5.21-2.06-9.53-5.82-14-9.23a128.79,128.79,0,0,0-80.6-26.37c-7.93.18-16,1.08-23.65-1.13-6.51-1.88-12.15-5.89-18-9.38-40.7-24.42-91.25-23.68-138.61-20.46C100.17,76.25,69.15,76,55.45,54.2c-8.1-12.88-7.66-30.57-18.39-41.37-6.62-6.66-16.24-9.28-25.48-11C7.9,1.18,4,.55,0,0V312.43H1280S833.1,223.16,688.31,205.13Z"/></g></g></svg>