<svg xmlns="http://www.w3.org/2000/svg" viewBox="0 0 1280 590.11"><defs><style>.cls-1{fill:#1c1c7c;}.cls-2{fill:#58587f;}.cls-3{fill:none;}.cls-4{fill:#1b1b59;}</style></defs><g id="Capa_2" data-name="Capa 2"><g id="Capa_3" data-name="Capa 3"><path class="cls-1" d="M957.87,223c6.71-25.38-13.75-27.42-31.52-31.46-29-6.63-61.15-28.21-84.48-40-19-9.58-59.21-37.76-59.21-37.76L759.14,88.59s-25-2.33-38.54-7.5C694.38,71,639.8,22.75,639.8,22.75L616.5,47.67s-37.18,48.74-54.59,73.11c-22,30.77-48.4,36.21-81.11,49.37.05,15.61,2.71,29.7,6.07,43.59,4.2,17.39,9.48,34.46,12.14,53.8.54,3.9,1.05,7.77,1.55,11.64H852.78C889.59,263.52,949.68,253.94,957.87,223Z"/><path class="cls-2" d="M639.8,22.75,616.5,47.67s-37.18,48.74-54.59,73.11c-22,30.77-48.4,36.21-81.11,49.37l-28.56,8.06S407.66,189.13,412,192.77c8,6.25,38.3,40.93,38.3,40.93l105.23,44.48L627.1,172.37l20.43-93.32-7.73-12.7Z"/><rect class="cls-3" x="317.01" width="645.98" height="380.21"/><path class="cls-4" d="M1280,590.11V155.28a33.55,33.55,0,0,0-5.09.9c-12.75,3.31-26.15,18.18-37.9,19.34-8.67.87-15.36-6.84-23.4-8.34-9.92-1.86-25.18-1.81-34.85.27-10.72,2.3-22.52,12.47-33.7,15-9.55,2.18-26,.67-35.22-.64-1.55-10.24-22.44-3.38-30.87-5.2-3.14-.68-6.55-4.25-10.54-5.29-5-1.32-11.41-1.35-16.71-1.38-11-.07-16.93,4.78-26.69,7.44-7.53,2.06-16.17,0-24.09.75-16.13,1.54-33.61-.54-50.07,1.44-19.32,2.32-31.62,20.6-51.93,24.12-18,3.12-37.79-.53-56.18.88-10.54.82-22.51,1.48-30.45,7.39-5.28,3.93-7,11.42-13.6,14.46-9.93,4.57-28.51,3.74-39.37,2.68-18.56-1.82-33.82-3.51-52.69-1.68-15.67,1.51-33.85,2-49.65.44-10.89-1.08-14.67-4.16-21.32-9.82-17.11-14.55-32.85-18-55.66-14.32-9.07,1.46-48.36,15.64-51.14.82-16.09,3.06-21.08-21-20.6-33.09-14.65,1-29.85-1.44-43.16-8.4-13.52-7.07-32.68-23.16-48.3-23.2-10.41,0-21.17,6-31.43,8.31s-21.64,3.66-31.74,6.51c-21.88,6.18-45.4,13.92-67.73,21.67-18.08,6.28-35.38,15-54.77,17.5-12.56,1.65-30,5.46-41.54,1.73-4.89-1.59-11-9-18.24-10.84-19.59-5.1-44.69-9.72-64.76-3.44-16.06,5-34.42,10.24-51.9,5.56-7.46-2-13.68-7.1-21.61-8.62-9.32-1.78-18.7-1.35-28.23-1.41A36.14,36.14,0,0,1,0,176.4V590.11Z"/></g></g></svg>