<svg id="visual" viewBox="0 0 960 540" width="960" height="540" xmlns="http://www.w3.org/2000/svg" xmlns:xlink="http://www.w3.org/1999/xlink" version="1.1"><path d="M0 44L11.5 46.7C23 49.3 46 54.7 68.8 52.8C91.7 51 114.3 42 137.2 44.8C160 47.7 183 62.3 205.8 67.8C228.7 73.3 251.3 69.7 274.2 63.3C297 57 320 48 342.8 43.5C365.7 39 388.3 39 411.2 45.3C434 51.7 457 64.3 480 67C503 69.7 526 62.3 548.8 59.5C571.7 56.7 594.3 58.3 617.2 62C640 65.7 663 71.3 685.8 69.7C708.7 68 731.3 59 754.2 60.7C777 62.3 800 74.7 822.8 76.3C845.7 78 868.3 69 891.2 67.3C914 65.7 937 71.3 948.5 74.2L960 77L960 0L948.5 0C937 0 914 0 891.2 0C868.3 0 845.7 0 822.8 0C800 0 777 0 754.2 0C731.3 0 708.7 0 685.8 0C663 0 640 0 617.2 0C594.3 0 571.7 0 548.8 0C526 0 503 0 480 0C457 0 434 0 411.2 0C388.3 0 365.7 0 342.8 0C320 0 297 0 274.2 0C251.3 0 228.7 0 205.8 0C183 0 160 0 137.2 0C114.3 0 91.7 0 68.8 0C46 0 23 0 11.5 0L0 0Z" fill="#050335"></path><path d="M0 136L11.5 145C23 154 46 172 68.8 173.8C91.7 175.7 114.3 161.3 137.2 164C160 166.7 183 186.3 205.8 201.7C228.7 217 251.3 228 274.2 217.2C297 206.3 320 173.7 342.8 152.8C365.7 132 388.3 123 411.2 139.3C434 155.7 457 197.3 480 206.3C503 215.3 526 191.7 548.8 188.8C571.7 186 594.3 204 617.2 205.8C640 207.7 663 193.3 685.8 176.3C708.7 159.3 731.3 139.7 754.2 146.8C777 154 800 188 822.8 198.8C845.7 209.7 868.3 197.3 891.2 183C914 168.7 937 152.3 948.5 144.2L960 136L960 75L948.5 72.2C937 69.3 914 63.7 891.2 65.3C868.3 67 845.7 76 822.8 74.3C800 72.7 777 60.3 754.2 58.7C731.3 57 708.7 66 685.8 67.7C663 69.3 640 63.7 617.2 60C594.3 56.3 571.7 54.7 548.8 57.5C526 60.3 503 67.7 480 65C457 62.3 434 49.7 411.2 43.3C388.3 37 365.7 37 342.8 41.5C320 46 297 55 274.2 61.3C251.3 67.7 228.7 71.3 205.8 65.8C183 60.3 160 45.7 137.2 42.8C114.3 40 91.7 49 68.8 50.8C46 52.7 23 47.3 11.5 44.7L0 42Z" fill="#050330"></path><path d="M0 325L11.5 328.7C23 332.3 46 339.7 68.8 345C91.7 350.3 114.3 353.7 137.2 349.2C160 344.7 183 332.3 205.8 328.8C228.7 325.3 251.3 330.7 274.2 341.3C297 352 320 368 342.8 369.8C365.7 371.7 388.3 359.3 411.2 354.8C434 350.3 457 353.7 480 344.7C503 335.7 526 314.3 548.8 303.7C571.7 293 594.3 293 617.2 302C640 311 663 329 685.8 330.7C708.7 332.3 731.3 317.7 754.2 325.7C777 333.7 800 364.3 822.8 377C845.7 389.7 868.3 384.3 891.2 370C914 355.7 937 332.3 948.5 320.7L960 309L960 134L948.5 142.2C937 150.3 914 166.7 891.2 181C868.3 195.3 845.7 207.7 822.8 196.8C800 186 777 152 754.2 144.8C731.3 137.7 708.7 157.3 685.8 174.3C663 191.3 640 205.7 617.2 203.8C594.3 202 571.7 184 548.8 186.8C526 189.7 503 213.3 480 204.3C457 195.3 434 153.7 411.2 137.3C388.3 121 365.7 130 342.8 150.8C320 171.7 297 204.3 274.2 215.2C251.3 226 228.7 215 205.8 199.7C183 184.3 160 164.7 137.2 162C114.3 159.3 91.7 173.7 68.8 171.8C46 170 23 152 11.5 143L0 134Z" fill="#05022b"></path><path d="M0 384L11.5 394C23 404 46 424 68.8 428.5C91.7 433 114.3 422 137.2 418.3C160 414.7 183 418.3 205.8 419.3C228.7 420.3 251.3 418.7 274.2 423.2C297 427.7 320 438.3 342.8 442.8C365.7 447.3 388.3 445.7 411.2 444.8C434 444 457 444 480 437.7C503 431.3 526 418.7 548.8 407C571.7 395.3 594.3 384.7 617.2 391.8C640 399 663 424 685.8 432C708.7 440 731.3 431 754.2 431C777 431 800 440 822.8 444.5C845.7 449 868.3 449 891.2 441.8C914 434.7 937 420.3 948.5 413.2L960 406L960 307L948.5 318.7C937 330.3 914 353.7 891.2 368C868.3 382.3 845.7 387.7 822.8 375C800 362.3 777 331.7 754.2 323.7C731.3 315.7 708.7 330.3 685.8 328.7C663 327 640 309 617.2 300C594.3 291 571.7 291 548.8 301.7C526 312.3 503 333.7 480 342.7C457 351.7 434 348.3 411.2 352.8C388.3 357.3 365.7 369.7 342.8 367.8C320 366 297 350 274.2 339.3C251.3 328.7 228.7 323.3 205.8 326.8C183 330.3 160 342.7 137.2 347.2C114.3 351.7 91.7 348.3 68.8 343C46 337.7 23 330.3 11.5 326.7L0 323Z" fill="#050227"></path><path d="M0 465L11.5 468.7C23 472.3 46 479.7 68.8 481.5C91.7 483.3 114.3 479.7 137.2 479.7C160 479.7 183 483.3 205.8 483.3C228.7 483.3 251.3 479.7 274.2 484.2C297 488.7 320 501.3 342.8 504C365.7 506.7 388.3 499.3 411.2 494C434 488.7 457 485.3 480 488.2C503 491 526 500 548.8 497.2C571.7 494.3 594.3 479.7 617.2 480.5C640 481.3 663 497.7 685.8 502.2C708.7 506.7 731.3 499.3 754.2 497.5C777 495.7 800 499.3 822.8 502.2C845.7 505 868.3 507 891.2 506.2C914 505.3 937 501.7 948.5 499.8L960 498L960 404L948.5 411.2C937 418.3 914 432.7 891.2 439.8C868.3 447 845.7 447 822.8 442.5C800 438 777 429 754.2 429C731.3 429 708.7 438 685.8 430C663 422 640 397 617.2 389.8C594.3 382.7 571.7 393.3 548.8 405C526 416.7 503 429.3 480 435.7C457 442 434 442 411.2 442.8C388.3 443.7 365.7 445.3 342.8 440.8C320 436.3 297 425.7 274.2 421.2C251.3 416.7 228.7 418.3 205.8 417.3C183 416.3 160 412.7 137.2 416.3C114.3 420 91.7 431 68.8 426.5C46 422 23 402 11.5 392L0 382Z" fill="#030122"></path><path d="M0 541L11.5 541C23 541 46 541 68.8 541C91.7 541 114.3 541 137.2 541C160 541 183 541 205.8 541C228.7 541 251.3 541 274.2 541C297 541 320 541 342.8 541C365.7 541 388.3 541 411.2 541C434 541 457 541 480 541C503 541 526 541 548.8 541C571.7 541 594.3 541 617.2 541C640 541 663 541 685.8 541C708.7 541 731.3 541 754.2 541C777 541 800 541 822.8 541C845.7 541 868.3 541 891.2 541C914 541 937 541 948.5 541L960 541L960 496L948.5 497.8C937 499.7 914 503.3 891.2 504.2C868.3 505 845.7 503 822.8 500.2C800 497.3 777 493.7 754.2 495.5C731.3 497.3 708.7 504.7 685.8 500.2C663 495.7 640 479.3 617.2 478.5C594.3 477.7 571.7 492.3 548.8 495.2C526 498 503 489 480 486.2C457 483.3 434 486.7 411.2 492C388.3 497.3 365.7 504.7 342.8 502C320 499.3 297 486.7 274.2 482.2C251.3 477.7 228.7 481.3 205.8 481.3C183 481.3 160 477.7 137.2 477.7C114.3 477.7 91.7 481.3 68.8 479.5C46 477.7 23 470.3 11.5 466.7L0 463Z" fill="#02011d"></path></svg>