<svg id="visual" viewBox="0 0 960 540" width="960" height="540" xmlns="http://www.w3.org/2000/svg" xmlns:xlink="http://www.w3.org/1999/xlink" version="1.1"><path d="M0 23L8.8 21.2C17.7 19.3 35.3 15.7 53.2 15.7C71 15.7 89 19.3 106.8 22.8C124.7 26.3 142.3 29.7 160 29.7C177.7 29.7 195.3 26.3 213.2 25.5C231 24.7 249 26.3 266.8 27.2C284.7 28 302.3 28 320 25.3C337.7 22.7 355.3 17.3 373.2 16.5C391 15.7 409 19.3 426.8 22C444.7 24.7 462.3 26.3 480 25.3C497.7 24.3 515.3 20.7 533.2 20.7C551 20.7 569 24.3 586.8 27C604.7 29.7 622.3 31.3 640 32.2C657.7 33 675.3 33 693.2 31.3C711 29.7 729 26.3 746.8 24.7C764.7 23 782.3 23 800 23C817.7 23 835.3 23 853.2 23C871 23 889 23 906.8 21.2C924.7 19.3 942.3 15.7 951.2 13.8L960 12L960 0L951.2 0C942.3 0 924.7 0 906.8 0C889 0 871 0 853.2 0C835.3 0 817.7 0 800 0C782.3 0 764.7 0 746.8 0C729 0 711 0 693.2 0C675.3 0 657.7 0 640 0C622.3 0 604.7 0 586.8 0C569 0 551 0 533.2 0C515.3 0 497.7 0 480 0C462.3 0 444.7 0 426.8 0C409 0 391 0 373.2 0C355.3 0 337.7 0 320 0C302.3 0 284.7 0 266.8 0C249 0 231 0 213.2 0C195.3 0 177.7 0 160 0C142.3 0 124.7 0 106.8 0C89 0 71 0 53.2 0C35.3 0 17.7 0 8.8 0L0 0Z" fill="#050335"></path><path d="M0 71L8.8 68.3C17.7 65.7 35.3 60.3 53.2 63C71 65.7 89 76.3 106.8 80.8C124.7 85.3 142.3 83.7 160 87.3C177.7 91 195.3 100 213.2 97.3C231 94.7 249 80.3 266.8 81.2C284.7 82 302.3 98 320 94.3C337.7 90.7 355.3 67.3 373.2 62.8C391 58.3 409 72.7 426.8 82.7C444.7 92.7 462.3 98.3 480 100.2C497.7 102 515.3 100 533.2 96.3C551 92.7 569 87.3 586.8 82.8C604.7 78.3 622.3 74.7 640 80C657.7 85.3 675.3 99.7 693.2 104.2C711 108.7 729 103.3 746.8 98C764.7 92.7 782.3 87.3 800 81C817.7 74.7 835.3 67.3 853.2 71C871 74.7 889 89.3 906.8 91.2C924.7 93 942.3 82 951.2 76.5L960 71L960 10L951.2 11.8C942.3 13.7 924.7 17.3 906.8 19.2C889 21 871 21 853.2 21C835.3 21 817.7 21 800 21C782.3 21 764.7 21 746.8 22.7C729 24.3 711 27.7 693.2 29.3C675.3 31 657.7 31 640 30.2C622.3 29.3 604.7 27.7 586.8 25C569 22.3 551 18.7 533.2 18.7C515.3 18.7 497.7 22.3 480 23.3C462.3 24.3 444.7 22.7 426.8 20C409 17.3 391 13.7 373.2 14.5C355.3 15.3 337.7 20.7 320 23.3C302.3 26 284.7 26 266.8 25.2C249 24.3 231 22.7 213.2 23.5C195.3 24.3 177.7 27.7 160 27.7C142.3 27.7 124.7 24.3 106.8 20.8C89 17.3 71 13.7 53.2 13.7C35.3 13.7 17.7 17.3 8.8 19.2L0 21Z" fill="#060331"></path><path d="M0 114L8.8 112.3C17.7 110.7 35.3 107.3 53.2 105.7C71 104 89 104 106.8 107.5C124.7 111 142.3 118 160 124.2C177.7 130.3 195.3 135.7 213.2 130.3C231 125 249 109 266.8 110C284.7 111 302.3 129 320 128C337.7 127 355.3 107 373.2 100.7C391 94.3 409 101.7 426.8 111.7C444.7 121.7 462.3 134.3 480 139.7C497.7 145 515.3 143 533.2 136.7C551 130.3 569 119.7 586.8 111.7C604.7 103.7 622.3 98.3 640 104.7C657.7 111 675.3 129 693.2 133.5C711 138 729 129 746.8 124.5C764.7 120 782.3 120 800 115.5C817.7 111 835.3 102 853.2 102C871 102 889 111 906.8 115.5C924.7 120 942.3 120 951.2 120L960 120L960 69L951.2 74.5C942.3 80 924.7 91 906.8 89.2C889 87.3 871 72.7 853.2 69C835.3 65.3 817.7 72.7 800 79C782.3 85.3 764.7 90.7 746.8 96C729 101.3 711 106.7 693.2 102.2C675.3 97.7 657.7 83.3 640 78C622.3 72.7 604.7 76.3 586.8 80.8C569 85.3 551 90.7 533.2 94.3C515.3 98 497.7 100 480 98.2C462.3 96.3 444.7 90.7 426.8 80.7C409 70.7 391 56.3 373.2 60.8C355.3 65.3 337.7 88.7 320 92.3C302.3 96 284.7 80 266.8 79.2C249 78.3 231 92.7 213.2 95.3C195.3 98 177.7 89 160 85.3C142.3 81.7 124.7 83.3 106.8 78.8C89 74.3 71 63.7 53.2 61C35.3 58.3 17.7 63.7 8.8 66.3L0 69Z" fill="#07032e"></path><path d="M0 255L8.8 251.3C17.7 247.7 35.3 240.3 53.2 231.3C71 222.3 89 211.7 106.8 210.8C124.7 210 142.3 219 160 219.8C177.7 220.7 195.3 213.3 213.2 208.8C231 204.3 249 202.7 266.8 207.2C284.7 211.7 302.3 222.3 320 225C337.7 227.7 355.3 222.3 373.2 226.8C391 231.3 409 245.7 426.8 249.3C444.7 253 462.3 246 480 242.5C497.7 239 515.3 239 533.2 229C551 219 569 199 586.8 200.7C604.7 202.3 622.3 225.7 640 230.2C657.7 234.7 675.3 220.3 693.2 215.8C711 211.3 729 216.7 746.8 220.3C764.7 224 782.3 226 800 221.5C817.7 217 835.3 206 853.2 202.3C871 198.7 889 202.3 906.8 212.3C924.7 222.3 942.3 238.7 951.2 246.8L960 255L960 118L951.2 118C942.3 118 924.7 118 906.8 113.5C889 109 871 100 853.2 100C835.3 100 817.7 109 800 113.5C782.3 118 764.7 118 746.8 122.5C729 127 711 136 693.2 131.5C675.3 127 657.7 109 640 102.7C622.3 96.3 604.7 101.7 586.8 109.7C569 117.7 551 128.3 533.2 134.7C515.3 141 497.7 143 480 137.7C462.3 132.3 444.7 119.7 426.8 109.7C409 99.7 391 92.3 373.2 98.7C355.3 105 337.7 125 320 126C302.3 127 284.7 109 266.8 108C249 107 231 123 213.2 128.3C195.3 133.7 177.7 128.3 160 122.2C142.3 116 124.7 109 106.8 105.5C89 102 71 102 53.2 103.7C35.3 105.3 17.7 108.7 8.8 110.3L0 112Z" fill="#07022a"></path><path d="M0 379L8.8 383.5C17.7 388 35.3 397 53.2 388C71 379 89 352 106.8 346.7C124.7 341.3 142.3 357.7 160 359.5C177.7 361.3 195.3 348.7 213.2 339.7C231 330.7 249 325.3 266.8 322.7C284.7 320 302.3 320 320 319C337.7 318 355.3 316 373.2 315C391 314 409 314 426.8 319.5C444.7 325 462.3 336 480 334.2C497.7 332.3 515.3 317.7 533.2 305.8C551 294 569 285 586.8 290.5C604.7 296 622.3 316 640 322.3C657.7 328.7 675.3 321.3 693.2 314.2C711 307 729 300 746.8 297.3C764.7 294.7 782.3 296.3 800 304.3C817.7 312.3 835.3 326.7 853.2 331.2C871 335.7 889 330.3 906.8 333C924.7 335.7 942.3 346.3 951.2 351.7L960 357L960 253L951.2 244.8C942.3 236.7 924.7 220.3 906.8 210.3C889 200.3 871 196.7 853.2 200.3C835.3 204 817.7 215 800 219.5C782.3 224 764.7 222 746.8 218.3C729 214.7 711 209.3 693.2 213.8C675.3 218.3 657.7 232.7 640 228.2C622.3 223.7 604.7 200.3 586.8 198.7C569 197 551 217 533.2 227C515.3 237 497.7 237 480 240.5C462.3 244 444.7 251 426.8 247.3C409 243.7 391 229.3 373.2 224.8C355.3 220.3 337.7 225.7 320 223C302.3 220.3 284.7 209.7 266.8 205.2C249 200.7 231 202.3 213.2 206.8C195.3 211.3 177.7 218.7 160 217.8C142.3 217 124.7 208 106.8 208.8C89 209.7 71 220.3 53.2 229.3C35.3 238.3 17.7 245.7 8.8 249.3L0 253Z" fill="#070226"></path><path d="M0 395L8.8 401.3C17.7 407.7 35.3 420.3 53.2 416.8C71 413.3 89 393.7 106.8 387.3C124.7 381 142.3 388 160 385.2C177.7 382.3 195.3 369.7 213.2 363.3C231 357 249 357 266.8 357C284.7 357 302.3 357 320 356.2C337.7 355.3 355.3 353.7 373.2 352.8C391 352 409 352 426.8 353.8C444.7 355.7 462.3 359.3 480 354.8C497.7 350.3 515.3 337.7 533.2 331.3C551 325 569 325 586.8 334C604.7 343 622.3 361 640 364.7C657.7 368.3 675.3 357.7 693.2 349.5C711 341.3 729 335.7 746.8 332.8C764.7 330 782.3 330 800 340C817.7 350 835.3 370 853.2 376.3C871 382.7 889 375.3 906.8 372.7C924.7 370 942.3 372 951.2 373L960 374L960 355L951.2 349.7C942.3 344.3 924.7 333.7 906.8 331C889 328.3 871 333.7 853.2 329.2C835.3 324.7 817.7 310.3 800 302.3C782.3 294.3 764.7 292.7 746.8 295.3C729 298 711 305 693.2 312.2C675.3 319.3 657.7 326.7 640 320.3C622.3 314 604.7 294 586.8 288.5C569 283 551 292 533.2 303.8C515.3 315.7 497.7 330.3 480 332.2C462.3 334 444.7 323 426.8 317.5C409 312 391 312 373.2 313C355.3 314 337.7 316 320 317C302.3 318 284.7 318 266.8 320.7C249 323.3 231 328.7 213.2 337.7C195.3 346.7 177.7 359.3 160 357.5C142.3 355.7 124.7 339.3 106.8 344.7C89 350 71 377 53.2 386C35.3 395 17.7 386 8.8 381.5L0 377Z" fill="#060223"></path><path d="M0 422L8.8 429.2C17.7 436.3 35.3 450.7 53.2 447.2C71 443.7 89 422.3 106.8 417C124.7 411.7 142.3 422.3 160 422.3C177.7 422.3 195.3 411.7 213.2 406.3C231 401 249 401 266.8 406.3C284.7 411.7 302.3 422.3 320 424C337.7 425.7 355.3 418.3 373.2 412C391 405.7 409 400.3 426.8 397.7C444.7 395 462.3 395 480 393.2C497.7 391.3 515.3 387.7 533.2 384.2C551 380.7 569 377.3 586.8 383.7C604.7 390 622.3 406 640 413.2C657.7 420.3 675.3 418.7 693.2 411.5C711 404.3 729 391.7 746.8 388C764.7 384.3 782.3 389.7 800 395C817.7 400.3 835.3 405.7 853.2 412C871 418.3 889 425.7 906.8 430.2C924.7 434.7 942.3 436.3 951.2 437.2L960 438L960 372L951.2 371C942.3 370 924.7 368 906.8 370.7C889 373.3 871 380.7 853.2 374.3C835.3 368 817.7 348 800 338C782.3 328 764.7 328 746.8 330.8C729 333.7 711 339.3 693.2 347.5C675.3 355.7 657.7 366.3 640 362.7C622.3 359 604.7 341 586.8 332C569 323 551 323 533.2 329.3C515.3 335.7 497.7 348.3 480 352.8C462.3 357.3 444.7 353.7 426.8 351.8C409 350 391 350 373.2 350.8C355.3 351.7 337.7 353.3 320 354.2C302.3 355 284.7 355 266.8 355C249 355 231 355 213.2 361.3C195.3 367.7 177.7 380.3 160 383.2C142.3 386 124.7 379 106.8 385.3C89 391.7 71 411.3 53.2 414.8C35.3 418.3 17.7 405.7 8.8 399.3L0 393Z" fill="#06021f"></path><path d="M0 455L8.8 458.5C17.7 462 35.3 469 53.2 465.3C71 461.7 89 447.3 106.8 442.8C124.7 438.3 142.3 443.7 160 444.5C177.7 445.3 195.3 441.7 213.2 436.3C231 431 249 424 266.8 428.5C284.7 433 302.3 449 320 450.8C337.7 452.7 355.3 440.3 373.2 434.2C391 428 409 428 426.8 428.8C444.7 429.7 462.3 431.3 480 430.3C497.7 429.3 515.3 425.7 533.2 420.3C551 415 569 408 586.8 414.3C604.7 420.7 622.3 440.3 640 445.7C657.7 451 675.3 442 693.2 434.8C711 427.7 729 422.3 746.8 419.7C764.7 417 782.3 417 800 419.7C817.7 422.3 835.3 427.7 853.2 432.2C871 436.7 889 440.3 906.8 444C924.7 447.7 942.3 451.3 951.2 453.2L960 455L960 436L951.2 435.2C942.3 434.3 924.7 432.7 906.8 428.2C889 423.7 871 416.3 853.2 410C835.3 403.7 817.7 398.3 800 393C782.3 387.7 764.7 382.3 746.8 386C729 389.7 711 402.3 693.2 409.5C675.3 416.7 657.7 418.3 640 411.2C622.3 404 604.7 388 586.8 381.7C569 375.3 551 378.7 533.2 382.2C515.3 385.7 497.7 389.3 480 391.2C462.3 393 444.7 393 426.8 395.7C409 398.3 391 403.7 373.2 410C355.3 416.3 337.7 423.7 320 422C302.3 420.3 284.7 409.7 266.8 404.3C249 399 231 399 213.2 404.3C195.3 409.7 177.7 420.3 160 420.3C142.3 420.3 124.7 409.7 106.8 415C89 420.3 71 441.7 53.2 445.2C35.3 448.7 17.7 434.3 8.8 427.2L0 420Z" fill="#04021c"></path><path d="M0 476L8.8 479.7C17.7 483.3 35.3 490.7 53.2 488.8C71 487 89 476 106.8 473.3C124.7 470.7 142.3 476.3 160 479.2C177.7 482 195.3 482 213.2 479.2C231 476.3 249 470.7 266.8 472.3C284.7 474 302.3 483 320 484.8C337.7 486.7 355.3 481.3 373.2 479.7C391 478 409 480 426.8 480C444.7 480 462.3 478 480 478C497.7 478 515.3 480 533.2 476.5C551 473 569 464 586.8 463C604.7 462 622.3 469 640 471.7C657.7 474.3 675.3 472.7 693.2 470C711 467.3 729 463.7 746.8 464.5C764.7 465.3 782.3 470.7 800 469.8C817.7 469 835.3 462 853.2 461.2C871 460.3 889 465.7 906.8 469.2C924.7 472.7 942.3 474.3 951.2 475.2L960 476L960 453L951.2 451.2C942.3 449.3 924.7 445.7 906.8 442C889 438.3 871 434.7 853.2 430.2C835.3 425.7 817.7 420.3 800 417.7C782.3 415 764.7 415 746.8 417.7C729 420.3 711 425.7 693.2 432.8C675.3 440 657.7 449 640 443.7C622.3 438.3 604.7 418.7 586.8 412.3C569 406 551 413 533.2 418.3C515.3 423.7 497.7 427.3 480 428.3C462.3 429.3 444.7 427.7 426.8 426.8C409 426 391 426 373.2 432.2C355.3 438.3 337.7 450.7 320 448.8C302.3 447 284.7 431 266.8 426.5C249 422 231 429 213.2 434.3C195.3 439.7 177.7 443.3 160 442.5C142.3 441.7 124.7 436.3 106.8 440.8C89 445.3 71 459.7 53.2 463.3C35.3 467 17.7 460 8.8 456.5L0 453Z" fill="#030118"></path><path d="M0 492L8.8 495.7C17.7 499.3 35.3 506.7 53.2 506.7C71 506.7 89 499.3 106.8 499.3C124.7 499.3 142.3 506.7 160 509.5C177.7 512.3 195.3 510.7 213.2 505.3C231 500 249 491 266.8 490C284.7 489 302.3 496 320 500.5C337.7 505 355.3 507 373.2 507C391 507 409 505 426.8 502.2C444.7 499.3 462.3 495.7 480 496.7C497.7 497.7 515.3 503.3 533.2 500.7C551 498 569 487 586.8 483.3C604.7 479.7 622.3 483.3 640 487.8C657.7 492.3 675.3 497.7 693.2 496.8C711 496 729 489 746.8 488.2C764.7 487.3 782.3 492.7 800 491.7C817.7 490.7 835.3 483.3 853.2 481.5C871 479.7 889 483.3 906.8 487.8C924.7 492.3 942.3 497.7 951.2 500.3L960 503L960 474L951.2 473.2C942.3 472.3 924.7 470.7 906.8 467.2C889 463.7 871 458.3 853.2 459.2C835.3 460 817.7 467 800 467.8C782.3 468.7 764.7 463.3 746.8 462.5C729 461.7 711 465.3 693.2 468C675.3 470.7 657.7 472.3 640 469.7C622.3 467 604.7 460 586.8 461C569 462 551 471 533.2 474.5C515.3 478 497.7 476 480 476C462.3 476 444.7 478 426.8 478C409 478 391 476 373.2 477.7C355.3 479.3 337.7 484.7 320 482.8C302.3 481 284.7 472 266.8 470.3C249 468.7 231 474.3 213.2 477.2C195.3 480 177.7 480 160 477.2C142.3 474.3 124.7 468.7 106.8 471.3C89 474 71 485 53.2 486.8C35.3 488.7 17.7 481.3 8.8 477.7L0 474Z" fill="#020114"></path><path d="M0 514L8.8 515.8C17.7 517.7 35.3 521.3 53.2 521.3C71 521.3 89 517.7 106.8 518.5C124.7 519.3 142.3 524.7 160 526.5C177.7 528.3 195.3 526.7 213.2 521.3C231 516 249 507 266.8 507C284.7 507 302.3 516 320 519.5C337.7 523 355.3 521 373.2 521C391 521 409 523 426.8 522.2C444.7 521.3 462.3 517.7 480 517.7C497.7 517.7 515.3 521.3 533.2 519.5C551 517.7 569 510.3 586.8 507.7C604.7 505 622.3 507 640 508.8C657.7 510.7 675.3 512.3 693.2 512.3C711 512.3 729 510.7 746.8 509.8C764.7 509 782.3 509 800 507.2C817.7 505.3 835.3 501.7 853.2 501.7C871 501.7 889 505.3 906.8 508.8C924.7 512.3 942.3 515.7 951.2 517.3L960 519L960 501L951.2 498.3C942.3 495.7 924.7 490.3 906.8 485.8C889 481.3 871 477.7 853.2 479.5C835.3 481.3 817.7 488.7 800 489.7C782.3 490.7 764.7 485.3 746.8 486.2C729 487 711 494 693.2 494.8C675.3 495.7 657.7 490.3 640 485.8C622.3 481.3 604.7 477.7 586.8 481.3C569 485 551 496 533.2 498.7C515.3 501.3 497.7 495.7 480 494.7C462.3 493.7 444.7 497.3 426.8 500.2C409 503 391 505 373.2 505C355.3 505 337.7 503 320 498.5C302.3 494 284.7 487 266.8 488C249 489 231 498 213.2 503.3C195.3 508.7 177.7 510.3 160 507.5C142.3 504.7 124.7 497.3 106.8 497.3C89 497.3 71 504.7 53.2 504.7C35.3 504.7 17.7 497.3 8.8 493.7L0 490Z" fill="#01000f"></path><path d="M0 541L8.8 541C17.7 541 35.3 541 53.2 541C71 541 89 541 106.8 541C124.7 541 142.3 541 160 541C177.7 541 195.3 541 213.2 541C231 541 249 541 266.8 541C284.7 541 302.3 541 320 541C337.7 541 355.3 541 373.2 541C391 541 409 541 426.8 541C444.7 541 462.3 541 480 541C497.7 541 515.3 541 533.2 541C551 541 569 541 586.8 541C604.7 541 622.3 541 640 541C657.7 541 675.3 541 693.2 541C711 541 729 541 746.8 541C764.7 541 782.3 541 800 541C817.7 541 835.3 541 853.2 541C871 541 889 541 906.8 541C924.7 541 942.3 541 951.2 541L960 541L960 517L951.2 515.3C942.3 513.7 924.7 510.3 906.8 506.8C889 503.3 871 499.7 853.2 499.7C835.3 499.7 817.7 503.3 800 505.2C782.3 507 764.7 507 746.8 507.8C729 508.7 711 510.3 693.2 510.3C675.3 510.3 657.7 508.7 640 506.8C622.3 505 604.7 503 586.8 505.7C569 508.3 551 515.7 533.2 517.5C515.3 519.3 497.7 515.7 480 515.7C462.3 515.7 444.7 519.3 426.8 520.2C409 521 391 519 373.2 519C355.3 519 337.7 521 320 517.5C302.3 514 284.7 505 266.8 505C249 505 231 514 213.2 519.3C195.3 524.7 177.7 526.3 160 524.5C142.3 522.7 124.7 517.3 106.8 516.5C89 515.7 71 519.3 53.2 519.3C35.3 519.3 17.7 515.7 8.8 513.8L0 512Z" fill="#000008"></path></svg>