<svg id="visual" viewBox="0 0 960 540" width="960" height="540" xmlns="http://www.w3.org/2000/svg" xmlns:xlink="http://www.w3.org/1999/xlink" version="1.1"><path d="M0 23L11.5 22C23 21 46 19 68.8 24.3C91.7 29.7 114.3 42.3 137.2 48.7C160 55 183 55 205.8 51.3C228.7 47.7 251.3 40.3 274.2 39.5C297 38.7 320 44.3 342.8 46.2C365.7 48 388.3 46 411.2 46.8C434 47.7 457 51.3 480 48.7C503 46 526 37 548.8 32.5C571.7 28 594.3 28 617.2 29.8C640 31.7 663 35.3 685.8 39C708.7 42.7 731.3 46.3 754.2 44.5C777 42.7 800 35.3 822.8 30.8C845.7 26.3 868.3 24.7 891.2 26.5C914 28.3 937 33.7 948.5 36.3L960 39L960 0L948.5 0C937 0 914 0 891.2 0C868.3 0 845.7 0 822.8 0C800 0 777 0 754.2 0C731.3 0 708.7 0 685.8 0C663 0 640 0 617.2 0C594.3 0 571.7 0 548.8 0C526 0 503 0 480 0C457 0 434 0 411.2 0C388.3 0 365.7 0 342.8 0C320 0 297 0 274.2 0C251.3 0 228.7 0 205.8 0C183 0 160 0 137.2 0C114.3 0 91.7 0 68.8 0C46 0 23 0 11.5 0L0 0Z" fill="#050335"></path><path d="M0 120L11.5 120.8C23 121.7 46 123.3 68.8 139.5C91.7 155.7 114.3 186.3 137.2 190C160 193.7 183 170.3 205.8 154.2C228.7 138 251.3 129 274.2 138C297 147 320 174 342.8 178.5C365.7 183 388.3 165 411.2 152.3C434 139.7 457 132.3 480 134.2C503 136 526 147 548.8 139C571.7 131 594.3 104 617.2 100.3C640 96.7 663 116.3 685.8 143.3C708.7 170.3 731.3 204.7 754.2 207.3C777 210 800 181 822.8 159.3C845.7 137.7 868.3 123.3 891.2 127C914 130.7 937 152.3 948.5 163.2L960 174L960 37L948.5 34.3C937 31.7 914 26.3 891.2 24.5C868.3 22.7 845.7 24.3 822.8 28.8C800 33.3 777 40.7 754.2 42.5C731.3 44.3 708.7 40.7 685.8 37C663 33.3 640 29.7 617.2 27.8C594.3 26 571.7 26 548.8 30.5C526 35 503 44 480 46.7C457 49.3 434 45.7 411.2 44.8C388.3 44 365.7 46 342.8 44.2C320 42.3 297 36.7 274.2 37.5C251.3 38.3 228.7 45.7 205.8 49.3C183 53 160 53 137.2 46.7C114.3 40.3 91.7 27.7 68.8 22.3C46 17 23 19 11.5 20L0 21Z" fill="#060330"></path><path d="M0 147L11.5 147.8C23 148.7 46 150.3 68.8 169.2C91.7 188 114.3 224 137.2 232.2C160 240.3 183 220.7 205.8 204.5C228.7 188.3 251.3 175.7 274.2 184.7C297 193.7 320 224.3 342.8 225.2C365.7 226 388.3 197 411.2 181.7C434 166.3 457 164.7 480 172C503 179.3 526 195.7 548.8 188.5C571.7 181.3 594.3 150.7 617.2 144.3C640 138 663 156 685.8 178.5C708.7 201 731.3 228 754.2 233.3C777 238.7 800 222.3 822.8 208.8C845.7 195.3 868.3 184.7 891.2 185.7C914 186.7 937 199.3 948.5 205.7L960 212L960 172L948.5 161.2C937 150.3 914 128.7 891.2 125C868.3 121.3 845.7 135.7 822.8 157.3C800 179 777 208 754.2 205.3C731.3 202.7 708.7 168.3 685.8 141.3C663 114.3 640 94.7 617.2 98.3C594.3 102 571.7 129 548.8 137C526 145 503 134 480 132.2C457 130.3 434 137.7 411.2 150.3C388.3 163 365.7 181 342.8 176.5C320 172 297 145 274.2 136C251.3 127 228.7 136 205.8 152.2C183 168.3 160 191.7 137.2 188C114.3 184.3 91.7 153.7 68.8 137.5C46 121.3 23 119.7 11.5 118.8L0 118Z" fill="#07032c"></path><path d="M0 195L11.5 194.2C23 193.3 46 191.7 68.8 210.7C91.7 229.7 114.3 269.3 137.2 282C160 294.7 183 280.3 205.8 262.3C228.7 244.3 251.3 222.7 274.2 230.7C297 238.7 320 276.3 342.8 281.7C365.7 287 388.3 260 411.2 240.2C434 220.3 457 207.7 480 210.3C503 213 526 231 548.8 232.8C571.7 234.7 594.3 220.3 617.2 215C640 209.7 663 213.3 685.8 231.3C708.7 249.3 731.3 281.7 754.2 288.8C777 296 800 278 822.8 265.5C845.7 253 868.3 246 891.2 252.3C914 258.7 937 278.3 948.5 288.2L960 298L960 210L948.5 203.7C937 197.3 914 184.7 891.2 183.7C868.3 182.7 845.7 193.3 822.8 206.8C800 220.3 777 236.7 754.2 231.3C731.3 226 708.7 199 685.8 176.5C663 154 640 136 617.2 142.3C594.3 148.7 571.7 179.3 548.8 186.5C526 193.7 503 177.3 480 170C457 162.7 434 164.3 411.2 179.7C388.3 195 365.7 224 342.8 223.2C320 222.3 297 191.7 274.2 182.7C251.3 173.7 228.7 186.3 205.8 202.5C183 218.7 160 238.3 137.2 230.2C114.3 222 91.7 186 68.8 167.2C46 148.3 23 146.7 11.5 145.8L0 145Z" fill="#070227"></path><path d="M0 352L11.5 354.7C23 357.3 46 362.7 68.8 370.8C91.7 379 114.3 390 137.2 390C160 390 183 379 205.8 370.8C228.7 362.7 251.3 357.3 274.2 361.8C297 366.3 320 380.7 342.8 383.3C365.7 386 388.3 377 411.2 374.3C434 371.7 457 375.3 480 369C503 362.7 526 346.3 548.8 341C571.7 335.7 594.3 341.3 617.2 355.8C640 370.3 663 393.7 685.8 399.8C708.7 406 731.3 395 754.2 382.3C777 369.7 800 355.3 822.8 356.3C845.7 357.3 868.3 373.7 891.2 382.7C914 391.7 937 393.3 948.5 394.2L960 395L960 296L948.5 286.2C937 276.3 914 256.7 891.2 250.3C868.3 244 845.7 251 822.8 263.5C800 276 777 294 754.2 286.8C731.3 279.7 708.7 247.3 685.8 229.3C663 211.3 640 207.7 617.2 213C594.3 218.3 571.7 232.7 548.8 230.8C526 229 503 211 480 208.3C457 205.7 434 218.3 411.2 238.2C388.3 258 365.7 285 342.8 279.7C320 274.3 297 236.7 274.2 228.7C251.3 220.7 228.7 242.3 205.8 260.3C183 278.3 160 292.7 137.2 280C114.3 267.3 91.7 227.7 68.8 208.7C46 189.7 23 191.3 11.5 192.2L0 193Z" fill="#060222"></path><path d="M0 390L11.5 392.7C23 395.3 46 400.7 68.8 407C91.7 413.3 114.3 420.7 137.2 418C160 415.3 183 402.7 205.8 392.7C228.7 382.7 251.3 375.3 274.2 379.8C297 384.3 320 400.7 342.8 403.3C365.7 406 388.3 395 411.2 395.8C434 396.7 457 409.3 480 403.2C503 397 526 372 548.8 366.7C571.7 361.3 594.3 375.7 617.2 390.8C640 406 663 422 685.8 428.3C708.7 434.7 731.3 431.3 754.2 421.5C777 411.7 800 395.3 822.8 391.7C845.7 388 868.3 397 891.2 404.2C914 411.3 937 416.7 948.5 419.3L960 422L960 393L948.5 392.2C937 391.3 914 389.7 891.2 380.7C868.3 371.7 845.7 355.3 822.8 354.3C800 353.3 777 367.7 754.2 380.3C731.3 393 708.7 404 685.8 397.8C663 391.7 640 368.3 617.2 353.8C594.3 339.3 571.7 333.7 548.8 339C526 344.3 503 360.7 480 367C457 373.3 434 369.7 411.2 372.3C388.3 375 365.7 384 342.8 381.3C320 378.7 297 364.3 274.2 359.8C251.3 355.3 228.7 360.7 205.8 368.8C183 377 160 388 137.2 388C114.3 388 91.7 377 68.8 368.8C46 360.7 23 355.3 11.5 352.7L0 350Z" fill="#05021d"></path><path d="M0 460L11.5 460.8C23 461.7 46 463.3 68.8 468.7C91.7 474 114.3 483 137.2 475.8C160 468.7 183 445.3 205.8 431C228.7 416.7 251.3 411.3 274.2 419.5C297 427.7 320 449.3 342.8 457.5C365.7 465.7 388.3 460.3 411.2 457.7C434 455 457 455 480 448.7C503 442.3 526 429.7 548.8 423.3C571.7 417 594.3 417 617.2 426.8C640 436.7 663 456.3 685.8 464.3C708.7 472.3 731.3 468.7 754.2 460.7C777 452.7 800 440.3 822.8 435C845.7 429.7 868.3 431.3 891.2 435.8C914 440.3 937 447.7 948.5 451.3L960 455L960 420L948.5 417.3C937 414.7 914 409.3 891.2 402.2C868.3 395 845.7 386 822.8 389.7C800 393.3 777 409.7 754.2 419.5C731.3 429.3 708.7 432.7 685.8 426.3C663 420 640 404 617.2 388.8C594.3 373.7 571.7 359.3 548.8 364.7C526 370 503 395 480 401.2C457 407.3 434 394.7 411.2 393.8C388.3 393 365.7 404 342.8 401.3C320 398.7 297 382.3 274.2 377.8C251.3 373.3 228.7 380.7 205.8 390.7C183 400.7 160 413.3 137.2 416C114.3 418.7 91.7 411.3 68.8 405C46 398.7 23 393.3 11.5 390.7L0 388Z" fill="#030119"></path><path d="M0 525L11.5 524C23 523 46 521 68.8 521C91.7 521 114.3 523 137.2 522.2C160 521.3 183 517.7 205.8 517.7C228.7 517.7 251.3 521.3 274.2 521.3C297 521.3 320 517.7 342.8 517.7C365.7 517.7 388.3 521.3 411.2 523.2C434 525 457 525 480 524C503 523 526 521 548.8 518.3C571.7 515.7 594.3 512.3 617.2 513.3C640 514.3 663 519.7 685.8 517.8C708.7 516 731.3 507 754.2 504.3C777 501.7 800 505.3 822.8 508C845.7 510.7 868.3 512.3 891.2 511.3C914 510.3 937 506.7 948.5 504.8L960 503L960 453L948.5 449.3C937 445.7 914 438.3 891.2 433.8C868.3 429.3 845.7 427.7 822.8 433C800 438.3 777 450.7 754.2 458.7C731.3 466.7 708.7 470.3 685.8 462.3C663 454.3 640 434.7 617.2 424.8C594.3 415 571.7 415 548.8 421.3C526 427.7 503 440.3 480 446.7C457 453 434 453 411.2 455.7C388.3 458.3 365.7 463.7 342.8 455.5C320 447.3 297 425.7 274.2 417.5C251.3 409.3 228.7 414.7 205.8 429C183 443.3 160 466.7 137.2 473.8C114.3 481 91.7 472 68.8 466.7C46 461.3 23 459.7 11.5 458.8L0 458Z" fill="#010114"></path><path d="M0 541L11.5 541C23 541 46 541 68.8 541C91.7 541 114.3 541 137.2 541C160 541 183 541 205.8 541C228.7 541 251.3 541 274.2 541C297 541 320 541 342.8 541C365.7 541 388.3 541 411.2 541C434 541 457 541 480 541C503 541 526 541 548.8 541C571.7 541 594.3 541 617.2 541C640 541 663 541 685.8 541C708.7 541 731.3 541 754.2 541C777 541 800 541 822.8 541C845.7 541 868.3 541 891.2 541C914 541 937 541 948.5 541L960 541L960 501L948.5 502.8C937 504.7 914 508.3 891.2 509.3C868.3 510.3 845.7 508.7 822.8 506C800 503.3 777 499.7 754.2 502.3C731.3 505 708.7 514 685.8 515.8C663 517.7 640 512.3 617.2 511.3C594.3 510.3 571.7 513.7 548.8 516.3C526 519 503 521 480 522C457 523 434 523 411.2 521.2C388.3 519.3 365.7 515.7 342.8 515.7C320 515.7 297 519.3 274.2 519.3C251.3 519.3 228.7 515.7 205.8 515.7C183 515.7 160 519.3 137.2 520.2C114.3 521 91.7 519 68.8 519C46 519 23 521 11.5 522L0 523Z" fill="#00000d"></path></svg>