<svg id="visual" viewBox="0 0 960 540" width="960" height="540" xmlns="http://www.w3.org/2000/svg" xmlns:xlink="http://www.w3.org/1999/xlink" version="1.1"><path d="M0 55L11.5 59.5C23 64 46 73 68.8 78.3C91.7 83.7 114.3 85.3 137.2 85.3C160 85.3 183 83.7 205.8 73.8C228.7 64 251.3 46 274.2 43.3C297 40.7 320 53.3 342.8 61.5C365.7 69.7 388.3 73.3 411.2 76.8C434 80.3 457 83.7 480 80.8C503 78 526 69 548.8 63.7C571.7 58.3 594.3 56.7 617.2 55.8C640 55 663 55 685.8 56.8C708.7 58.7 731.3 62.3 754.2 67.7C777 73 800 80 822.8 80.8C845.7 81.7 868.3 76.3 891.2 69.2C914 62 937 53 948.5 48.5L960 44L960 0L948.5 0C937 0 914 0 891.2 0C868.3 0 845.7 0 822.8 0C800 0 777 0 754.2 0C731.3 0 708.7 0 685.8 0C663 0 640 0 617.2 0C594.3 0 571.7 0 548.8 0C526 0 503 0 480 0C457 0 434 0 411.2 0C388.3 0 365.7 0 342.8 0C320 0 297 0 274.2 0C251.3 0 228.7 0 205.8 0C183 0 160 0 137.2 0C114.3 0 91.7 0 68.8 0C46 0 23 0 11.5 0L0 0Z" fill="#050335"></path><path d="M0 158L11.5 163.3C23 168.7 46 179.3 68.8 191C91.7 202.7 114.3 215.3 137.2 226.2C160 237 183 246 205.8 226.2C228.7 206.3 251.3 157.7 274.2 148.7C297 139.7 320 170.3 342.8 175.7C365.7 181 388.3 161 411.2 168.2C434 175.3 457 209.7 480 223.2C503 236.7 526 229.3 548.8 211.3C571.7 193.3 594.3 164.7 617.2 162C640 159.3 663 182.7 685.8 185.3C708.7 188 731.3 170 754.2 170C777 170 800 188 822.8 186.2C845.7 184.3 868.3 162.7 891.2 149.2C914 135.7 937 130.3 948.5 127.7L960 125L960 42L948.5 46.5C937 51 914 60 891.2 67.2C868.3 74.3 845.7 79.7 822.8 78.8C800 78 777 71 754.2 65.7C731.3 60.3 708.7 56.7 685.8 54.8C663 53 640 53 617.2 53.8C594.3 54.7 571.7 56.3 548.8 61.7C526 67 503 76 480 78.8C457 81.7 434 78.3 411.2 74.8C388.3 71.3 365.7 67.7 342.8 59.5C320 51.3 297 38.7 274.2 41.3C251.3 44 228.7 62 205.8 71.8C183 81.7 160 83.3 137.2 83.3C114.3 83.3 91.7 81.7 68.8 76.3C46 71 23 62 11.5 57.5L0 53Z" fill="#050332"></path><path d="M0 190L11.5 199.8C23 209.7 46 229.3 68.8 240.2C91.7 251 114.3 253 137.2 262C160 271 183 287 205.8 269C228.7 251 251.3 199 274.2 187.3C297 175.7 320 204.3 342.8 213.3C365.7 222.3 388.3 211.7 411.2 218C434 224.3 457 247.7 480 263C503 278.3 526 285.7 548.8 273C571.7 260.3 594.3 227.7 617.2 222.2C640 216.7 663 238.3 685.8 237.5C708.7 236.7 731.3 213.3 754.2 209.8C777 206.3 800 222.7 822.8 224.5C845.7 226.3 868.3 213.7 891.2 203.7C914 193.7 937 186.3 948.5 182.7L960 179L960 123L948.5 125.7C937 128.3 914 133.7 891.2 147.2C868.3 160.7 845.7 182.3 822.8 184.2C800 186 777 168 754.2 168C731.3 168 708.7 186 685.8 183.3C663 180.7 640 157.3 617.2 160C594.3 162.7 571.7 191.3 548.8 209.3C526 227.3 503 234.7 480 221.2C457 207.7 434 173.3 411.2 166.2C388.3 159 365.7 179 342.8 173.7C320 168.3 297 137.7 274.2 146.7C251.3 155.7 228.7 204.3 205.8 224.2C183 244 160 235 137.2 224.2C114.3 213.3 91.7 200.7 68.8 189C46 177.3 23 166.7 11.5 161.3L0 156Z" fill="#05022e"></path><path d="M0 228L11.5 244.2C23 260.3 46 292.7 68.8 309.7C91.7 326.7 114.3 328.3 137.2 334.7C160 341 183 352 205.8 335.8C228.7 319.7 251.3 276.3 274.2 263.7C297 251 320 269 342.8 279.8C365.7 290.7 388.3 294.3 411.2 302.5C434 310.7 457 323.3 480 330.5C503 337.7 526 339.3 548.8 328.5C571.7 317.7 594.3 294.3 617.2 292.5C640 290.7 663 310.3 685.8 305C708.7 299.7 731.3 269.3 754.2 263.2C777 257 800 275 822.8 285.7C845.7 296.3 868.3 299.7 891.2 296.8C914 294 937 285 948.5 280.5L960 276L960 177L948.5 180.7C937 184.3 914 191.7 891.2 201.7C868.3 211.7 845.7 224.3 822.8 222.5C800 220.7 777 204.3 754.2 207.8C731.3 211.3 708.7 234.7 685.8 235.5C663 236.3 640 214.7 617.2 220.2C594.3 225.7 571.7 258.3 548.8 271C526 283.7 503 276.3 480 261C457 245.7 434 222.3 411.2 216C388.3 209.7 365.7 220.3 342.8 211.3C320 202.3 297 173.7 274.2 185.3C251.3 197 228.7 249 205.8 267C183 285 160 269 137.2 260C114.3 251 91.7 249 68.8 238.2C46 227.3 23 207.7 11.5 197.8L0 188Z" fill="#05022b"></path><path d="M0 417L11.5 417C23 417 46 417 68.8 415.2C91.7 413.3 114.3 409.7 137.2 413.2C160 416.7 183 427.3 205.8 428.2C228.7 429 251.3 420 274.2 416.5C297 413 320 415 342.8 418.7C365.7 422.3 388.3 427.7 411.2 430.3C434 433 457 433 480 433.8C503 434.7 526 436.3 548.8 431.8C571.7 427.3 594.3 416.7 617.2 411.3C640 406 663 406 685.8 416.8C708.7 427.7 731.3 449.3 754.2 451.2C777 453 800 435 822.8 426.8C845.7 418.7 868.3 420.3 891.2 418.5C914 416.7 937 411.3 948.5 408.7L960 406L960 274L948.5 278.5C937 283 914 292 891.2 294.8C868.3 297.7 845.7 294.3 822.8 283.7C800 273 777 255 754.2 261.2C731.3 267.3 708.7 297.7 685.8 303C663 308.3 640 288.7 617.2 290.5C594.3 292.3 571.7 315.7 548.8 326.5C526 337.3 503 335.7 480 328.5C457 321.3 434 308.7 411.2 300.5C388.3 292.3 365.7 288.7 342.8 277.8C320 267 297 249 274.2 261.7C251.3 274.3 228.7 317.7 205.8 333.8C183 350 160 339 137.2 332.7C114.3 326.3 91.7 324.7 68.8 307.7C46 290.7 23 258.3 11.5 242.2L0 226Z" fill="#050227"></path><path d="M0 449L11.5 446.3C23 443.7 46 438.3 68.8 438.3C91.7 438.3 114.3 443.7 137.2 450C160 456.3 183 463.7 205.8 461C228.7 458.3 251.3 445.7 274.2 439.3C297 433 320 433 342.8 437.5C365.7 442 388.3 451 411.2 457.3C434 463.7 457 467.3 480 471.8C503 476.3 526 481.7 548.8 475.3C571.7 469 594.3 451 617.2 444.7C640 438.3 663 443.7 685.8 453.5C708.7 463.3 731.3 477.7 754.2 479.5C777 481.3 800 470.7 822.8 466.2C845.7 461.7 868.3 463.3 891.2 460.7C914 458 937 451 948.5 447.5L960 444L960 404L948.5 406.7C937 409.3 914 414.7 891.2 416.5C868.3 418.3 845.7 416.7 822.8 424.8C800 433 777 451 754.2 449.2C731.3 447.3 708.7 425.7 685.8 414.8C663 404 640 404 617.2 409.3C594.3 414.7 571.7 425.3 548.8 429.8C526 434.3 503 432.7 480 431.8C457 431 434 431 411.2 428.3C388.3 425.7 365.7 420.3 342.8 416.7C320 413 297 411 274.2 414.5C251.3 418 228.7 427 205.8 426.2C183 425.3 160 414.7 137.2 411.2C114.3 407.7 91.7 411.3 68.8 413.2C46 415 23 415 11.5 415L0 415Z" fill="#040224"></path><path d="M0 498L11.5 498C23 498 46 498 68.8 499.8C91.7 501.7 114.3 505.3 137.2 508.8C160 512.3 183 515.7 205.8 511.2C228.7 506.7 251.3 494.3 274.2 488.2C297 482 320 482 342.8 484.7C365.7 487.3 388.3 492.7 411.2 494.3C434 496 457 494 480 498.5C503 503 526 514 548.8 514C571.7 514 594.3 503 617.2 499.3C640 495.7 663 499.3 685.8 503C708.7 506.7 731.3 510.3 754.2 510.3C777 510.3 800 506.7 822.8 506.7C845.7 506.7 868.3 510.3 891.2 511.3C914 512.3 937 510.7 948.5 509.8L960 509L960 442L948.5 445.5C937 449 914 456 891.2 458.7C868.3 461.3 845.7 459.7 822.8 464.2C800 468.7 777 479.3 754.2 477.5C731.3 475.7 708.7 461.3 685.8 451.5C663 441.7 640 436.3 617.2 442.7C594.3 449 571.7 467 548.8 473.3C526 479.7 503 474.3 480 469.8C457 465.3 434 461.7 411.2 455.3C388.3 449 365.7 440 342.8 435.5C320 431 297 431 274.2 437.3C251.3 443.7 228.7 456.3 205.8 459C183 461.7 160 454.3 137.2 448C114.3 441.7 91.7 436.3 68.8 436.3C46 436.3 23 441.7 11.5 444.3L0 447Z" fill="#030120"></path><path d="M0 541L11.5 541C23 541 46 541 68.8 541C91.7 541 114.3 541 137.2 541C160 541 183 541 205.8 541C228.7 541 251.3 541 274.2 541C297 541 320 541 342.8 541C365.7 541 388.3 541 411.2 541C434 541 457 541 480 541C503 541 526 541 548.8 541C571.7 541 594.3 541 617.2 541C640 541 663 541 685.8 541C708.7 541 731.3 541 754.2 541C777 541 800 541 822.8 541C845.7 541 868.3 541 891.2 541C914 541 937 541 948.5 541L960 541L960 507L948.5 507.8C937 508.7 914 510.3 891.2 509.3C868.3 508.3 845.7 504.7 822.8 504.7C800 504.7 777 508.3 754.2 508.3C731.3 508.3 708.7 504.7 685.8 501C663 497.3 640 493.7 617.2 497.3C594.3 501 571.7 512 548.8 512C526 512 503 501 480 496.5C457 492 434 494 411.2 492.3C388.3 490.7 365.7 485.3 342.8 482.7C320 480 297 480 274.2 486.2C251.3 492.3 228.7 504.7 205.8 509.2C183 513.7 160 510.3 137.2 506.8C114.3 503.3 91.7 499.7 68.8 497.8C46 496 23 496 11.5 496L0 496Z" fill="#02011d"></path></svg>