<svg xmlns="http://www.w3.org/2000/svg" viewBox="0 0 205.48 205.48"><defs><style>.cls-1{fill:#dadada;}.cls-2{fill:#6409ce;}</style></defs><g id="Capa_2" data-name="Capa 2"><g id="Capa_3" data-name="Capa 3"><rect class="cls-1" width="205.48" height="205.48" rx="17.25"/><path d="M87.61,41.92a23.38,23.38,0,0,0-4.35,5.62c-7.32-2.9-20.9-4.86-37.84-7.11C61.12,40.3,74.34,40.42,87.61,41.92Z"/><path d="M114.71,40.45a20.92,20.92,0,0,0-4.6-2.06A21.39,21.39,0,0,0,85,48.52,16,16,0,0,1,88.89,48a16.28,16.28,0,0,1,9.63,29.42,20.49,20.49,0,0,0,20.4-3.6,21.5,21.5,0,0,0,4.15-6h0a21.41,21.41,0,0,0-8.37-27.46Zm-8.08,9.6a3.89,3.89,0,1,1,3.89-3.89A3.89,3.89,0,0,1,106.63,50.05Z"/><path class="cls-2" d="M105.18,64.33a16.24,16.24,0,0,1-6.66,13.13,20.46,20.46,0,0,1-11-9.74,14.31,14.31,0,0,0-.7-17.31,13.92,13.92,0,0,0-1.88-1.88h0A16,16,0,0,1,88.89,48,16.29,16.29,0,0,1,105.18,64.33Z"/><path d="M121.45,133.56c-.1,1.17-.16,2.34-.16,3.53a39.22,39.22,0,0,0,.31,4.88,38.77,38.77,0,0,0,10.75,22.29,38.9,38.9,0,0,1-50.83-.65,38.7,38.7,0,0,0,10.13-21.72,39.54,39.54,0,0,0,.29-4.77c0-1.2,0-2.39-.16-3.56a38.77,38.77,0,0,0-5.61-16.84l0-.06c-.3-.5-.62-1-.94-1.45a38.9,38.9,0,0,1,.5-41.63,26.14,26.14,0,0,0,7.07,5.77,43.29,43.29,0,0,0-4.92,20.13c0,.44,0,.88,0,1.31a43.47,43.47,0,0,0,11.07,27.74,44.05,44.05,0,0,0,4.38,4.26c1,.87,2.08,1.68,3.17,2.44q1.68-1.17,3.24-2.49a47.06,47.06,0,0,0,4-3.86,43.49,43.49,0,0,0,11.39-29c0-.14,0-.27,0-.41a43.46,43.46,0,0,0-5.44-21.1,26.09,26.09,0,0,0,6.77-6.44,38.91,38.91,0,0,1,6.09,32.94,38.13,38.13,0,0,1-4.16,9.84,0,0,0,0,0,0,0c-.55.78-1.07,1.58-1.56,2.41a0,0,0,0,0,0,0A38.7,38.7,0,0,0,121.45,133.56Z"/><path class="cls-2" d="M125.11,99.48c0,.14,0,.27,0,.41a43.49,43.49,0,0,1-11.39,29,47.06,47.06,0,0,1-4,3.86q-1.56,1.32-3.24,2.49c-1.09-.76-2.15-1.57-3.17-2.44a44.05,44.05,0,0,1-4.38-4.26,43.47,43.47,0,0,1-11.07-27.74c0-.43,0-.87,0-1.31a43.29,43.29,0,0,1,4.92-20.13,26,26,0,0,0,26.91-1A43.46,43.46,0,0,1,125.11,99.48Z"/></g></g></svg>